<svg width="218" height="96" viewBox="0 0 218 96" fill="none" xmlns="http://www.w3.org/2000/svg">
<g clip-path="url(#clip0_1886_6395)">
<path d="M0 67.3186V36.7229H6.33974V41.4322C7.53218 39.7975 8.98093 38.369 10.6292 37.2025C12.0313 36.3016 13.6663 35.837 15.3296 35.8671C17.636 35.8671 19.4465 36.3743 20.7613 37.3886C22.0761 38.4029 23.1882 40.0223 24.0976 42.2467C25.7 40.0223 27.2476 38.4029 28.7404 37.3886C30.2785 36.3605 32.0919 35.8297 33.938 35.8671C35.1112 35.8576 36.2734 36.0956 37.3498 36.5656C38.4261 37.0356 39.3927 37.7272 40.1873 38.5959C41.0324 39.4423 41.7001 40.4507 42.1511 41.5614C42.6021 42.6721 42.8271 43.8626 42.8128 45.0623V67.3103H36.4032V46.7409C36.4032 43.3561 34.7405 41.6623 31.4152 41.6596C29.517 41.6596 27.9091 42.5251 26.5916 44.2561C25.2741 45.9871 24.6139 48.1246 24.6112 50.6688V67.3186H18.2016V47.5926C18.2016 43.5904 16.5677 41.5879 13.2999 41.5852C12.3464 41.5845 11.4056 41.8049 10.5505 42.2294C9.69546 42.6539 8.94911 43.271 8.36945 44.0328C6.99355 45.7369 6.27437 47.883 6.34385 50.0775V67.3186H0Z" fill="white"/>
<path d="M47.5176 36.7312H53.9272V53.9723C53.9272 59.2838 56.2554 61.9409 60.912 61.9437C62.9746 61.9437 64.6085 61.2325 65.8137 59.8102C67.0189 58.388 67.6201 56.442 67.6174 53.9723V36.7312H73.9571V55.01C73.9571 58.8386 72.7163 61.9891 70.2346 64.4616C67.753 66.9341 64.5838 68.1744 60.7271 68.1827C56.7992 68.1827 53.619 66.9423 51.1867 64.4616C48.7543 61.9809 47.5381 58.7559 47.5381 54.7868L47.5176 36.7312Z" fill="white"/>
<path d="M83.7352 27.8296H90.1447V36.7271H96.4845V42.623H90.1447V67.3145H83.7352V42.6271H78.6855V36.6568H83.7352V27.8296Z" fill="white"/>
<path d="M217.999 52.9636H192.061C192.623 56.1004 193.906 58.3937 195.911 59.8435C197.805 61.2516 200.097 62.011 202.452 62.01C206.084 62.01 209.13 60.494 211.59 57.462L216.265 61.0219C212.754 65.5947 208.051 67.8811 202.156 67.8811C197.637 67.8811 193.854 66.3237 190.808 63.209C187.762 60.0943 186.239 56.2258 186.239 51.6034C186.219 49.5118 186.618 47.4377 187.412 45.5048C188.206 43.5719 189.379 41.8198 190.861 40.3533C192.328 38.8382 194.083 37.6353 196.021 36.8163C197.959 35.9973 200.041 35.5788 202.143 35.5858C204.245 35.5927 206.324 36.0249 208.257 36.8567C210.19 37.6885 211.937 38.9029 213.393 40.4277C216.513 43.6444 218.049 47.823 217.999 52.9636ZM192.743 47.812H211.314C209.252 43.6085 206.206 41.5068 202.177 41.5068C197.767 41.5068 194.622 43.6085 192.743 47.812Z" fill="white"/>
<path d="M126.182 30.4468L103.633 41.2462L94.7832 96L120.22 66.1362L126.934 74.6657L123.047 54.4065L126.182 30.4468ZM104.693 74.6864L107.159 45.8893L121.999 36.6445L115.639 58.3343L104.693 74.6864Z" fill="#F20F7A"/>
<path d="M127.107 52.6204L135.132 29.9424L139.475 33.4237L131.348 50.4869L147.602 34.846L154.669 45.5131L146.542 42.3088L134.528 55.8205L149.015 71.1101L134.174 68.2655L127.107 52.6204Z" fill="#0EF293"/>
<path d="M183.868 0L175.035 26.3122L172.565 35.5571L183.868 41.2421L177.512 45.8686L169.385 41.5977L163.732 62.5763L176.099 51.1981L174.332 61.1541L153.838 71.11L161.965 39.8198L156.311 36.2682L141.117 27.0234L157.018 29.1568L163.732 32.7125L167.972 18.4897" fill="#ECF214"/>
</g>
<defs>
<clipPath id="clip0_1886_6395">
<rect width="218" height="96" fill="white"/>
</clipPath>
</defs>
</svg>
