<svg width="1211" height="1234" viewBox="0 0 1211 1234" fill="none" xmlns="http://www.w3.org/2000/svg">
<g clip-path="url(#clip0_1984_3164)">
<path d="M248.798 71H51V431H315V219.182L248.798 71Z" fill="#F20F7A"/>
<path d="M312 1030.53L243.643 1108H51.0001V713.835V610H312V1030.53Z" fill="#0FF294"/>
<g clip-path="url(#clip1_1984_3164)">
<path d="M434 407.76V102.76H695V360.639L623.322 407.76H434Z" fill="#F20F7A"/>
</g>
<path d="M682.284 601.644L730 639.5V1129H455.247L424.701 1114.96L400 1104.04V601.644L463.234 587.082L571.422 593.843L629.716 572L682.284 601.644Z" fill="#0FF294"/>
<path d="M932 57L938 94H844L838 57H932Z" fill="#0EF293"/>
<path d="M838 151H921.5L937 160.618V194H855L838 182.684V151Z" fill="#0EF293"/>
<path d="M856.036 251H988V278H850.325L838 257.319H844.914L856.036 251Z" fill="#0EF293"/>
<path d="M1155 335V352.865V401H1124.05H867.953L856.471 384.624H838V354.85V335H892.414H1008.73H1094.1H1124.05H1138.03H1155Z" fill="#0EF293"/>
<path d="M969.964 458H838V481H975.675L988 463.383H981.086L969.964 458Z" fill="#F20F7A"/>
<path d="M848.784 570H952.649L985 550.952L971.378 538H937.892H838V570H848.784Z" fill="#F20F7A"/>
<path d="M856.036 627H988V650H850.325L838 632.383H844.914L856.036 627Z" fill="#ECF214"/>
<path d="M1001 714.143H838V757L906 752.918L1005 757L1016 738.633L1001 732.51L1010 707L1001 714.143Z" fill="#E7ED19"/>
<path d="M845 859L838 814H1117L1124 859H845Z" fill="#ECF214"/>
<circle cx="928" cy="1006" r="90" fill="#ECF214"/>
<path d="M838 1157.04L845.13 1201H982.971L990.695 1196.45H1122L1115.46 1153H990.695L982.971 1157.04H838Z" fill="#081426" stroke="#0EF293" stroke-width="3"/>
</g>
<defs>
<clipPath id="clip0_1984_3164">
<rect width="1211" height="1234" fill="white"/>
</clipPath>
<clipPath id="clip1_1984_3164">
<rect width="261" height="323" fill="white" transform="translate(434 103)"/>
</clipPath>
</defs>
</svg>
