<svg width="30" height="30" viewBox="0 0 30 30" fill="none" xmlns="http://www.w3.org/2000/svg">
<g clip-path="url(#clip0_1886_6408)">
<path d="M15.0005 29.5455C23.0338 29.5455 29.546 23.0333 29.546 15C29.546 6.96681 23.0338 0.45459 15.0005 0.45459C6.9673 0.45459 0.455078 6.96681 0.455078 15C0.455078 23.0333 6.9673 29.5455 15.0005 29.5455Z" fill="#081426" stroke="#081426" stroke-width="0.5" stroke-miterlimit="10"/>
<path d="M12.9823 25.1636C12.8878 25.1065 12.8129 25.022 12.7674 24.9214C12.722 24.8207 12.7082 24.7087 12.7278 24.6V16.5273H10.2187C9.85504 16.5273 9.69141 16.3818 9.69141 16.0182V12.9818C9.69141 12.6 9.85504 12.4546 10.2187 12.4546H12.7278V12.2364C12.7278 11.4364 12.7278 10.6364 12.7278 9.85456C12.7276 9.21381 12.8618 8.58016 13.1217 7.99452C13.3817 7.40887 13.7616 6.88426 14.2369 6.45455C14.9256 5.84167 15.8064 5.48805 16.7278 5.45455C17.8187 5.45455 18.9278 5.45455 20.0187 5.45455C20.0688 5.45211 20.119 5.45958 20.1662 5.47654C20.2135 5.4935 20.257 5.51962 20.2941 5.5534C20.3313 5.58717 20.3614 5.62795 20.3828 5.67339C20.4041 5.71882 20.4163 5.76803 20.4187 5.81819C20.4276 5.89064 20.4276 5.96392 20.4187 6.03637V8.60001C20.4187 9.03637 20.2732 9.16365 19.855 9.16365H18.0369C17.3096 9.16365 16.9641 9.49092 16.9278 10.2182C16.8914 10.9455 16.9278 11.6727 16.9278 12.4182H19.8187C20.2005 12.4182 20.346 12.5636 20.346 12.9455V16.0364C20.346 16.4 20.2005 16.5273 19.8369 16.5273H16.8914V24.5636C16.905 24.679 16.8868 24.7959 16.8388 24.9017C16.7907 25.0075 16.7146 25.0981 16.6187 25.1636H12.9823Z" fill="#0FF294"/>
<path d="M19.6915 5.65459L18.6915 4.10913L17.7461 5.58186" fill="#0FF294"/>
<path d="M19.6915 5.65459L18.6915 4.10913L17.7461 5.58186" stroke="#0FF294" stroke-width="0.5" stroke-miterlimit="10"/>
<path d="M16.6541 5.80016L15.1268 4.78198L14.8359 6.52744" fill="#0FF294"/>
<path d="M16.6541 5.80016L15.1268 4.78198L14.8359 6.52744" stroke="#0FF294" stroke-width="0.5" stroke-miterlimit="10"/>
<path d="M14.1645 7.03638L12.3281 7.2182L13.219 8.74547" fill="#0FF294"/>
<path d="M14.1645 7.03638L12.3281 7.2182L13.219 8.74547" stroke="#0FF294" stroke-width="0.5" stroke-miterlimit="10"/>
<path d="M13.0005 9.81812L11.4551 10.8181L12.9278 11.7818" fill="#0FF294"/>
<path d="M13.0005 9.81812L11.4551 10.8181L12.9278 11.7818" stroke="#0FF294" stroke-width="0.5" stroke-miterlimit="10"/>
<path d="M10.0741 13.4365L8.54688 14.4547L10.0196 15.4002" fill="#0FF294"/>
<path d="M10.0741 13.4365L8.54688 14.4547L10.0196 15.4002" stroke="#0FF294" stroke-width="0.5" stroke-miterlimit="10"/>
<path d="M12.9824 17.1819L11.4551 18.2182L12.9642 19.1455" fill="#0FF294"/>
<path d="M12.9824 17.1819L11.4551 18.2182L12.9642 19.1455" stroke="#0FF294" stroke-width="0.5" stroke-miterlimit="10"/>
<path d="M13.0546 20.1091L11.5273 21.1455L13.0183 22.0728" fill="#0FF294"/>
<path d="M13.0546 20.1091L11.5273 21.1455L13.0183 22.0728" stroke="#0FF294" stroke-width="0.5" stroke-miterlimit="10"/>
<path d="M13.2011 22.8181L11.6738 23.8363L13.1647 24.7818" fill="#0FF294"/>
<path d="M13.2011 22.8181L11.6738 23.8363L13.1647 24.7818" stroke="#0FF294" stroke-width="0.5" stroke-miterlimit="10"/>
</g>
<defs>
<clipPath id="clip0_1886_6408">
<rect width="30" height="30" fill="white"/>
</clipPath>
</defs>
</svg>
