<svg width="103" height="50" viewBox="0 0 103 50" fill="none" xmlns="http://www.w3.org/2000/svg">
<g clip-path="url(#clip0_1886_6679)">
<path d="M0 33.4522V19.3301H2.93264V21.5038C3.48571 20.7501 4.15689 20.0914 4.92007 19.5534C5.56794 19.1362 6.3242 18.9205 7.09387 18.9331C8.16271 18.9331 9.00142 19.1672 9.61 19.6354C10.2186 20.1036 10.7353 20.853 11.16 21.8835C11.9017 20.8568 12.6181 20.11 13.3091 19.6431C14.0181 19.1676 14.8546 18.9199 15.7073 18.9331C16.2505 18.929 16.7885 19.0387 17.287 19.2553C17.7854 19.4718 18.2333 19.7905 18.6019 20.1908C18.9931 20.5819 19.3021 21.0477 19.5108 21.5607C19.7196 22.0736 19.8237 22.6234 19.8172 23.1774V33.4446H16.8484V23.956C16.8484 22.3924 16.0788 21.6106 14.5396 21.6106C13.6609 21.6106 12.9167 22.0101 12.3068 22.8091C11.697 23.6081 11.392 24.5947 11.392 25.769V33.4522H8.42516V24.3492C8.42516 22.5006 7.66886 21.5763 6.15626 21.5763C5.71489 21.5758 5.27936 21.6775 4.88354 21.8735C4.48771 22.0694 4.14227 22.3543 3.87405 22.706C3.23718 23.4926 2.90428 24.4832 2.93645 25.4961V33.4522H0Z" fill="#10243F"/>
<path d="M22 19.334H24.9688V27.292C24.9688 29.7462 26.0433 30.9727 28.1924 30.9714C29.1471 30.9714 29.9028 30.6438 30.4594 29.9886C31.016 29.3333 31.2949 28.4345 31.2962 27.292V19.334H34.2288V27.771C34.2288 29.5395 33.6545 30.9943 32.5058 32.1355C31.3571 33.2767 29.8907 33.8492 28.1068 33.8531C26.2861 33.8531 24.8135 33.2805 23.6888 32.1355C22.5642 30.9905 22.0013 29.5013 22 27.668V19.334Z" fill="#10243F"/>
<path d="M38.7573 15.2271H41.7261V19.3339H44.6588V22.0553H41.7261V33.4522H38.7573V22.0553H36.4219V19.2996H38.7573V15.2271Z" fill="#10243F"/>
<path d="M102.998 26.8283H90.9921C91.2546 28.2761 91.8486 29.334 92.7741 30.002C93.6503 30.6529 94.7117 31.0042 95.8019 31.0039C97.4857 31.0039 98.8956 30.3041 100.032 28.9046L102.198 30.5478C100.571 32.6584 98.3935 33.7138 95.6649 33.7138C93.5729 33.7138 91.822 32.995 90.4121 31.5573C89.0022 30.1196 88.2972 28.334 88.2972 26.2004C88.288 25.2346 88.4729 24.2768 88.8408 23.3843C89.2087 22.4918 89.7522 21.6828 90.4387 21.0058C91.1178 20.307 91.9299 19.7522 92.8268 19.3745C93.7237 18.9968 94.6871 18.8038 95.6598 18.807C96.6325 18.8103 97.5947 19.0096 98.4891 19.3932C99.3835 19.7768 100.192 20.3369 100.866 21.0401C102.312 22.5274 103.023 24.4568 102.998 26.8283ZM91.3002 24.4485H99.8946C98.9399 22.5096 97.53 21.5401 95.6649 21.5401C93.63 21.5401 92.1751 22.5096 91.3002 24.4485Z" fill="#10243F"/>
<path d="M47.2219 20.0134L59.7855 13.729L62.9349 14.5038L66.1376 12.5954L75.1447 14.313L76.9458 9.35114L87.153 0L87.8034 4.96183L83.5509 17.1756L88.7543 21.1832L84.7605 25.7634L83.9522 31.6794L71.5579 37.0363L62.043 35.395L60.9342 39.313L56.3298 37.4046L44.6316 50L42.9199 44.084L47.2219 20.0134Z" fill="#10243F"/>
<path d="M59.7275 16.4351L49.2921 21.4141L45.2031 46.6927L56.9793 32.9064L60.0869 36.8454L58.2878 27.4942L59.7275 16.4351ZM49.7828 36.8549L50.9239 23.561L57.7933 19.2957L54.8493 29.3053L49.7828 36.8549Z" fill="#F20F7A"/>
<path d="M60.166 26.6717L63.8803 16.2023L65.8906 17.8091L62.1287 25.687L69.6524 18.4656L72.9236 23.3893L69.1617 21.9122L63.6007 28.1488L70.3066 35.2042L63.4372 33.8912L60.166 26.6717Z" fill="#0FF294"/>
<path d="M86.441 2.38171L82.3521 14.5268L81.209 18.7939L86.441 21.4199L83.4989 23.5535L79.737 21.584L77.1201 31.2672L82.8446 26.0153L82.0268 30.6107L72.5405 35.2042L76.3023 20.7634L73.6854 19.1222L66.6523 14.855L74.0125 15.8397L77.1201 17.4809L79.0828 10.9161" fill="#ECF214"/>
</g>
<defs>
<clipPath id="clip0_1886_6679">
<rect width="103" height="50" fill="white"/>
</clipPath>
</defs>
</svg>
