<svg width="30" height="30" viewBox="0 0 30 30" fill="none" xmlns="http://www.w3.org/2000/svg">
<g clip-path="url(#clip0_1886_6421)">
<path d="M14.9993 29.6907C23.1225 29.6907 29.7077 23.1134 29.7077 15C29.7077 6.88656 23.1225 0.309326 14.9993 0.309326C6.87616 0.309326 0.291016 6.88656 0.291016 15C0.291016 23.1134 6.87616 29.6907 14.9993 29.6907Z" fill="#081426"/>
<path d="M15 30C6.729 30 0 23.2711 0 15C0 6.72898 6.729 0 15 0C23.271 0 30 6.72898 30 15C30 23.2711 23.271 30 15 30ZM15 0.618675C7.05062 0.618675 0.583331 7.07012 0.583331 15C0.583331 22.9299 7.05062 29.3813 15 29.3813C22.9494 29.3813 29.4167 22.9299 29.4167 15C29.4167 7.07017 22.9494 0.618675 15 0.618675Z" fill="#081426"/>
<path d="M23.4692 14.9877C23.45 16.1198 23.4417 17.252 23.4075 18.3833C23.3833 19.2096 23.2692 20.0263 22.9058 20.781C22.205 22.2358 21.0267 23.0719 19.4425 23.2902C18.6108 23.4051 17.7625 23.4351 16.9208 23.4413C15.1958 23.4546 13.47 23.4342 11.745 23.4095C10.9383 23.398 10.1358 23.3025 9.38501 22.9817C7.90835 22.3507 7.03167 21.2282 6.71583 19.6621C6.5375 18.7818 6.53666 17.8866 6.53416 16.9948C6.52916 15.2272 6.54416 13.4604 6.56999 11.6928C6.5825 10.8735 6.6875 10.0604 7.02999 9.30476C7.67249 7.88448 8.77916 7.01658 10.3067 6.74877C11.0767 6.61355 11.87 6.56759 12.6533 6.56052C14.5675 6.54462 16.4817 6.56495 18.395 6.59234C19.19 6.60384 19.9766 6.72226 20.7083 7.05811C22.1916 7.73864 23.0458 8.91146 23.2891 10.5067C23.3967 11.212 23.4183 11.9332 23.4408 12.6482C23.4658 13.4277 23.4466 14.2081 23.4466 14.9876C23.4541 14.9876 23.4617 14.9877 23.4692 14.9877ZM21.9042 15.0027H21.9409V14.0597C21.9417 12.9098 21.9633 11.7573 21.7517 10.6208C21.5258 9.4073 20.8125 8.6048 19.6108 8.30165C19.0917 8.17085 18.5433 8.11252 18.0067 8.10102C16.3517 8.06478 14.6958 8.04624 13.0408 8.06478C12.2258 8.07361 11.4033 8.12487 10.6 8.25567C9.37415 8.4563 8.57249 9.20311 8.28416 10.4148C8.15 10.9778 8.09583 11.5699 8.0825 12.1506C8.04667 13.6716 8.03082 15.1936 8.0525 16.7146C8.06501 17.5913 8.12249 18.4734 8.23499 19.3431C8.38833 20.5335 9.23832 21.4465 10.4025 21.6975C10.97 21.8204 11.5592 21.8858 12.14 21.899C13.6692 21.9344 15.1992 21.9503 16.7283 21.9291C17.6 21.9167 18.4792 21.8716 19.34 21.7444C20.5675 21.5632 21.3808 20.8296 21.6908 19.6223C21.8242 19.1044 21.8792 18.5565 21.8958 18.0209C21.9267 17.0151 21.9042 16.0085 21.9042 15.0027Z" fill="#0FF294"/>
<path d="M14.9987 10.6597C17.4129 10.6605 19.3345 12.5917 19.3329 15.0168C19.3312 17.4093 17.3837 19.3413 14.9754 19.3378C12.5812 19.3342 10.642 17.3846 10.6445 14.9841C10.6479 12.5881 12.5895 10.6588 14.9987 10.6597ZM14.982 17.8053C16.5387 17.8114 17.807 16.5547 17.812 15C17.817 13.4543 16.5429 12.1798 14.992 12.178C13.4445 12.1763 12.1887 13.4277 12.1787 14.9806C12.1687 16.5387 13.4195 17.7991 14.982 17.8053Z" fill="#0FF294"/>
<path d="M19.5042 11.4921C18.9342 11.4904 18.4959 11.0458 18.5 10.4713C18.5034 9.91718 18.955 9.46556 19.5084 9.4629C20.0609 9.46026 20.5334 9.9331 20.5317 10.4846C20.5292 11.0458 20.0734 11.4939 19.5042 11.4921Z" fill="#0FF294"/>
<path d="M6.53214 16.0549C6.53214 16.0549 0.262889 14.304 6.02688 7.56801C11.8188 0.799448 13.8536 5.33018 12.1781 7.01909" stroke="#F20F7A" stroke-width="0.75" stroke-miterlimit="10" stroke-linecap="round"/>
<path d="M1.10352 12.178C1.10352 12.178 3.52033 13.3444 6.7615 12.3071" stroke="#F20F7A" stroke-width="0.75" stroke-miterlimit="10" stroke-linecap="round"/>
<path d="M16.6348 0.990234C16.6348 0.990234 21.2425 4.11955 20.0457 6.66447C18.8489 9.20939 19.499 10.4776 19.499 10.4776" stroke="#F20F7A" stroke-width="0.75" stroke-miterlimit="10" stroke-linecap="round"/>
<path d="M20.8448 27.7566C20.8448 27.7566 14.0694 27.5698 12.7384 22.4076C12.1884 20.2743 13.0484 18.033 14.6594 16.5302C17.0903 14.2625 24.365 11.7536 26.0031 14.2461C26.0031 14.2461 27.1839 15.6314 23.441 16.8301" stroke="#F20F7A" stroke-width="0.75" stroke-miterlimit="10" stroke-linecap="round"/>
</g>
<defs>
<clipPath id="clip0_1886_6421">
<rect width="30" height="30" fill="white"/>
</clipPath>
</defs>
</svg>
