<svg width="35" height="35" viewBox="0 0 35 35" fill="none" xmlns="http://www.w3.org/2000/svg">
<g clip-path="url(#clip0_1886_6689)">
<path d="M17.5005 34.7407C27.0223 34.7407 34.7412 27.0218 34.7412 17.5C34.7412 7.97821 27.0223 0.259277 17.5005 0.259277C7.9787 0.259277 0.259766 7.97821 0.259766 17.5C0.259766 27.0218 7.9787 34.7407 17.5005 34.7407Z" fill="#081426"/>
<path d="M17.5 35C7.85048 35 0 27.1495 0 17.5C0 7.85052 7.85048 0 17.5 0C27.1495 0 35 7.85048 35 17.5C35 27.1496 27.1495 35 17.5 35ZM17.5 0.518613C8.13643 0.518613 0.518613 8.1364 0.518613 17.5C0.518613 26.8636 8.13643 34.4814 17.5 34.4814C26.8636 34.4814 34.4814 26.8636 34.4814 17.5C34.4814 8.13647 26.8636 0.518613 17.5 0.518613Z" fill="#16253D"/>
<path d="M25.7738 7.37183H9.44495C8.46405 7.37183 7.66992 8.16591 7.66992 9.14681C7.66992 9.92424 8.17372 10.5782 8.87103 10.8184C8.98117 10.7584 9.09464 10.7083 9.21134 10.6716C9.61176 10.5415 10.139 10.6316 10.4959 10.8384C10.5393 10.8618 10.5793 10.8918 10.6194 10.9219H25.7705C26.7514 10.9219 27.5455 10.1278 27.5455 9.14681C27.5455 8.16591 26.7514 7.37183 25.7705 7.37183H25.7738Z" fill="#0FF294"/>
<path d="M26.0537 13.9016H14.0689C14.0589 13.9984 14.0455 14.0918 14.0255 14.1852C13.9288 14.609 13.6151 14.9526 13.2581 15.1828C13.0679 15.3063 12.8611 15.3697 12.6375 15.3797C12.4173 15.4297 12.1938 15.4197 11.9736 15.3496C11.8935 15.3263 11.8167 15.2929 11.74 15.2596C11.7133 15.3263 11.6833 15.393 11.6499 15.4564C11.4464 15.8434 11.056 16.0937 10.6523 16.2238C10.2519 16.354 9.72475 16.2638 9.36771 16.057C9.17416 15.9436 9.02075 15.7901 8.89396 15.6166C8.85726 15.7233 8.81388 15.8235 8.76053 15.9202C8.63706 16.1538 8.41682 16.3607 8.16992 16.5074C8.46687 17.0647 9.04739 17.4483 9.72143 17.4483H26.0503C27.0312 17.4483 27.8253 16.6543 27.8253 15.6733C27.8253 14.6924 27.0312 13.8983 26.0503 13.8983L26.0537 13.9016Z" fill="#0FF294"/>
<path d="M26.0509 17.9488H9.72198C8.88896 17.9488 8.12521 17.4867 7.7288 16.7428C7.60308 16.5069 7.68496 16.2138 7.91476 16.0772C8.09754 15.9686 8.24474 15.8261 8.31861 15.6863C8.32001 15.6837 8.32143 15.6811 8.32288 15.6785C8.36066 15.61 8.39283 15.5365 8.42127 15.4538C8.48191 15.2776 8.63547 15.1496 8.81979 15.1218C9.00411 15.0939 9.18862 15.1708 9.29861 15.3213C9.39703 15.456 9.50222 15.5552 9.62013 15.6245C9.87832 15.7737 10.2556 15.8267 10.4981 15.7479C10.4977 15.748 10.4985 15.7477 10.4981 15.7479C10.6926 15.6852 11.0446 15.5333 11.2075 15.2235C11.2308 15.1793 11.2538 15.1289 11.2759 15.0736C11.3262 14.948 11.4252 14.8481 11.5503 14.7966C11.6754 14.7452 11.8161 14.7466 11.9401 14.8006C12.0041 14.8284 12.0645 14.8547 12.114 14.8691C12.118 14.8703 12.122 14.8715 12.1259 14.8727C12.2617 14.916 12.393 14.9221 12.5273 14.8916C12.5563 14.885 12.586 14.881 12.6158 14.8797C12.7535 14.8735 12.8747 14.8353 12.9863 14.763C12.9858 14.7632 12.9867 14.7627 12.9863 14.763C13.2783 14.5747 13.4798 14.3242 13.5375 14.0768C13.5518 14.009 13.5627 13.9369 13.5716 13.8502C13.598 13.5951 13.813 13.4012 14.0695 13.4012H25.9932C26.0122 13.3989 26.0315 13.3978 26.0509 13.3978C26.659 13.3978 27.2305 13.6344 27.6601 14.0641C28.0898 14.4937 28.3264 15.0652 28.3264 15.6733C28.3264 16.2814 28.0898 16.8529 27.6602 17.2826C27.2305 17.7122 26.659 17.9488 26.0509 17.9488ZM8.8633 16.6027C9.09356 16.8213 9.39869 16.9479 9.72198 16.9479H26.0509C26.7536 16.9479 27.3254 16.3761 27.3254 15.6733C27.3254 14.9878 26.7813 14.4269 26.1023 14.3998C26.0865 14.4013 26.0704 14.4021 26.0542 14.4021H14.4864C14.3484 14.869 14.0123 15.2923 13.5299 15.6034C13.2811 15.7646 13.0038 15.8566 12.7051 15.8771C12.465 15.9254 12.2232 15.923 11.984 15.8701C11.7251 16.2453 11.3147 16.5361 10.8074 16.6998C10.5442 16.7853 10.2388 16.807 9.92402 16.7623C9.63236 16.7209 9.35343 16.6268 9.11738 16.49C9.11668 16.4896 9.116 16.4892 9.1153 16.4888C9.08312 16.47 9.05158 16.4503 9.02065 16.4296C8.97252 16.4893 8.91989 16.5471 8.8633 16.6027Z" fill="#0FF294"/>
<path d="M26.2252 22.8767C26.1652 22.6899 26.1552 22.4763 26.1785 22.2661C25.915 22.4262 25.608 22.5063 25.301 22.5197C24.884 22.5397 24.4102 22.3195 24.1199 22.0326C23.9565 21.8824 23.843 21.7022 23.7762 21.4954C23.7762 21.492 23.7729 21.4854 23.7696 21.482C23.7429 21.4854 23.7195 21.4954 23.6928 21.4987C23.4359 21.6422 23.139 21.7189 22.8487 21.7323C22.4316 21.7522 21.9579 21.5321 21.6676 21.2451C21.3973 20.9749 21.2672 20.6512 21.2105 20.2942H9.7262C8.7453 20.2942 7.95117 21.0883 7.95117 22.0693C7.95117 23.0502 8.7453 23.8442 9.7262 23.8442H26.0551C26.2987 23.8442 26.5288 23.7909 26.7357 23.7008C26.4921 23.4873 26.3253 23.1903 26.2253 22.8833L26.2252 22.8767Z" fill="#0FF294"/>
<path d="M26.0556 24.3447H9.72667C9.11859 24.3447 8.54709 24.1081 8.11744 23.6784C7.68779 23.2488 7.45117 22.6773 7.45117 22.0692C7.45117 21.4611 7.68779 20.8896 8.11744 20.4599C8.54709 20.0303 9.11857 19.7937 9.72667 19.7937H21.211C21.4571 19.7937 21.6667 19.9726 21.7053 20.2157C21.7514 20.5061 21.8517 20.7205 22.0209 20.8901C22.231 21.0972 22.5764 21.2441 22.8252 21.2324C22.825 21.2324 22.8255 21.2324 22.8252 21.2324C23.0487 21.222 23.2708 21.1614 23.4492 21.0618C23.4982 21.0344 23.5513 21.0155 23.6064 21.0058C23.6273 21.0003 23.6635 20.991 23.7081 20.9854C23.8611 20.9663 24.0143 21.0188 24.1235 21.1277C24.1866 21.1906 24.2323 21.2688 24.2567 21.353C24.2981 21.4752 24.3644 21.577 24.459 21.664C24.4635 21.6681 24.4679 21.6723 24.4723 21.6766C24.6822 21.8842 25.0283 22.0317 25.2776 22.0198C25.2769 22.0198 25.2783 22.0198 25.2776 22.0198C25.5179 22.0093 25.7412 21.9465 25.9192 21.8384C26.0822 21.7394 26.2874 21.7416 26.4482 21.8442C26.609 21.9468 26.6975 22.1319 26.6764 22.3215C26.659 22.4779 26.6679 22.6169 26.7022 22.7236C26.7063 22.7362 26.7098 22.7489 26.7128 22.7617C26.7954 22.9998 26.9171 23.1939 27.0661 23.3245C27.195 23.4374 27.2571 23.6085 27.2307 23.7778C27.2043 23.9472 27.0931 24.0912 26.936 24.1597C26.654 24.2825 26.3578 24.3447 26.0556 24.3447ZM9.72667 20.7947C9.0239 20.7947 8.45213 21.3664 8.45213 22.0692C8.45213 22.772 9.02387 23.3438 9.72667 23.3438H25.8698C25.8246 23.2465 25.7845 23.1444 25.7499 23.0384C25.7443 23.0212 25.7397 23.0038 25.736 22.9862C25.7343 22.9805 25.7327 22.9747 25.7311 22.9689C25.5992 22.9965 25.4632 23.0135 25.3245 23.0197C25.2998 23.0208 25.2748 23.0214 25.2498 23.0214C24.739 23.0214 24.1691 22.7808 23.7751 22.3949C23.6823 22.3088 23.6003 22.2147 23.5296 22.1132C23.3208 22.1812 23.0992 22.2217 22.8732 22.2322C22.8481 22.2334 22.8228 22.234 22.7974 22.234C22.2839 22.234 21.7104 21.9907 21.3163 21.601C21.3156 21.6004 21.3149 21.5997 21.3143 21.599C21.0878 21.3726 20.9239 21.1072 20.8188 20.7947H9.72667Z" fill="#0FF294"/>
<path d="M7.64762 22.1757C7.75774 22.5261 7.84447 22.893 7.79442 23.2567C7.72436 23.7605 7.40072 24.1876 7.21053 24.6581C7.02035 25.1285 7.01368 25.7624 7.43408 26.0494C7.50749 26.0994 7.5909 26.1361 7.68098 26.1394C7.93455 26.1528 8.12473 25.9192 8.26154 25.7057C8.39835 25.4922 8.56519 25.2486 8.81876 25.2286C9.04228 25.2119 9.24581 25.392 9.31592 25.6056C9.38592 25.8192 9.34256 26.0527 9.27254 26.2662C9.13901 26.6566 8.90217 27.0136 8.58851 27.2839C8.33493 27.5041 8.02131 27.6876 7.90454 28.0046C7.85117 28.1481 7.84782 28.3048 7.84782 28.4583C7.84782 28.7286 7.87451 29.0256 8.06136 29.2224C8.21484 29.3825 8.45172 29.4393 8.62191 29.5827C8.80205 29.7362 8.88546 29.9731 8.98895 30.1867C9.09233 30.4002 9.24918 30.6171 9.48276 30.6671C9.63619 30.6972 9.79301 30.6504 9.94653 30.6571C10.2267 30.6671 10.4737 30.8506 10.6805 31.0408C10.8874 31.231 11.0876 31.4479 11.3478 31.5479C11.6081 31.6481 11.9617 31.5979 12.0952 31.351C12.232 31.0975 12.0785 30.7772 11.875 30.5737C11.6714 30.3702 11.4146 30.2067 11.2745 29.9531C11.1343 29.6995 11.1944 29.3024 11.4746 29.2291C11.6982 29.1723 11.9517 29.3458 12.1486 29.2291C12.2253 29.1857 12.2754 29.1056 12.3054 29.0256C12.4188 28.7119 12.2687 28.3716 12.1386 28.0647C12.0084 27.7576 11.9084 27.3806 12.0985 27.1071C12.1286 27.067 12.162 27.027 12.2087 27.0103C12.3054 26.9735 12.4055 27.037 12.5056 27.0704C12.7892 27.1704 13.1095 27.0203 13.303 26.7934C13.4966 26.5666 13.5999 26.2763 13.7134 25.9993C13.7735 25.8526 13.8402 25.7057 13.9537 25.5956C14.0671 25.4855 14.2373 25.4221 14.3874 25.4789C14.5209 25.5289 14.621 25.6657 14.7611 25.6657C14.9346 25.6657 15.0247 25.4655 15.0747 25.2986C15.1815 24.945 15.2883 24.588 15.3951 24.2343" fill="#0FF294"/>
<path d="M14.0005 31.6679C14.1606 31.5912 14.3875 31.4744 14.5644 31.5611C14.7111 31.6312 14.7945 31.8147 14.9113 31.9248C15.0648 32.0683 15.2416 32.0983 15.4285 32.1751C15.6554 32.2718 15.4051 32.2918 15.2917 32.2818C15.0848 32.2651 14.8813 32.2284 14.7011 32.1216C14.5343 32.0216 14.3808 31.9214 14.1873 31.8915C13.9938 31.8614 13.7936 31.9048 13.5967 31.8881C13.4967 31.878 13.2898 31.7747 13.3832 31.6512L13.3098 31.7246C13.3699 31.6813 13.4733 31.6846 13.5467 31.6779C13.6435 31.6679 13.7402 31.6645 13.8403 31.6612C14.1073 31.6612 14.1106 31.2408 13.8403 31.2441C13.7002 31.2441 13.5634 31.2541 13.4232 31.2742C13.2831 31.2942 13.1163 31.3076 13.0262 31.4377C12.8928 31.6312 12.9561 31.9148 13.103 32.0849C13.2664 32.2751 13.5166 32.3119 13.7502 32.3052C13.9838 32.2985 14.1573 32.2784 14.3575 32.3986C14.5876 32.5387 14.7978 32.6355 15.0682 32.6722C15.3117 32.7055 15.5853 32.7456 15.7888 32.5787C15.9924 32.4119 15.9957 32.115 15.8055 31.9248C15.6387 31.758 15.3784 31.7813 15.2149 31.6278C15.0248 31.4543 14.9213 31.2275 14.6578 31.1474C14.3642 31.0573 14.0606 31.1841 13.8003 31.3075C13.5567 31.4209 13.7703 31.7813 14.0105 31.6678L14.0005 31.6679Z" fill="#0FF294"/>
<path d="M7.72096 9.14685C8.0346 9.77744 7.69427 10.7284 7.34727 11.3423C7.00027 11.9561 6.50646 12.4767 6.1628 13.0905C5.81915 13.7045 5.62897 14.4786 5.94926 15.1092C6.15613 15.5196 6.64327 15.8298 7.08035 15.6864C7.55079 15.5296 7.73098 14.9791 7.90112 14.5186C8.07129 14.0582 8.43828 13.5377 8.92542 13.6177C9.14227 13.6511 9.33249 13.8179 9.39925 14.0281C9.4626 14.2317 9.41257 14.4585 9.4726 14.6654C9.59272 15.0724 10.1466 15.2326 10.5236 15.0391C10.9007 14.8456 11.0975 14.4018 11.1142 13.9781C11.1209 13.7812 11.1375 13.5243 11.3277 13.4743C11.5612 13.4108 11.6847 13.7345 11.8716 13.8913C12.1952 14.1616 12.7458 13.7845 12.7124 13.3642C12.679 12.9438 12.2453 12.6435 11.8249 12.6134C11.4712 12.5901 11.1076 12.7035 10.7705 12.6035C10.4335 12.5033 10.2 11.9995 10.4936 11.806C10.5937 11.7393 10.7205 11.736 10.8406 11.7459C11.3944 11.7926 12.0317 12.0996 12.4521 11.7359C12.5489 11.6525 12.6156 11.5424 12.7057 11.4523C13.0126 11.132 13.6866 10.9919 14.1304 10.9585" fill="#0FF294"/>
<path d="M28.1077 15.7235C28.2145 16.1205 28.3213 16.5242 28.2946 16.9347C28.2679 17.3451 28.081 17.7655 27.7274 17.9723C27.594 18.0491 27.4438 18.0924 27.3103 18.1725C26.9266 18.4027 26.7798 18.9532 26.9967 19.3436C27.2302 19.7673 27.754 19.9175 28.1277 20.2278C28.5048 20.5414 28.7217 21.0418 28.695 21.5324C28.6783 21.826 28.5615 22.1296 28.318 22.2931C28.0744 22.4565 27.6907 22.4165 27.5472 22.1596C27.5005 22.0762 27.4805 21.9762 27.4638 21.8827C27.4071 21.5724 27.3537 21.2655 27.297 20.9551C27.2703 20.8051 27.2403 20.6515 27.1569 20.5281C27.0801 20.4113 26.96 20.3312 26.8332 20.2745C26.6497 20.1911 26.4395 20.1577 26.246 20.2212C26.0558 20.2812 25.8924 20.4513 25.8756 20.6516C25.869 20.7416 25.889 20.835 25.859 20.9219C25.8189 21.0452 25.6822 21.1187 25.5487 21.1253C25.4185 21.1321 25.2917 21.0853 25.1683 21.0386C25.1183 21.0186 25.0649 20.9986 25.0249 20.9585C24.918 20.8451 25.0015 20.6649 25.0349 20.5115C25.0916 20.2612 24.9848 19.9843 24.778 19.8341C24.5711 19.684 24.2742 19.674 24.054 19.8041C23.9104 19.8909 23.8037 20.031 23.6803 20.1444C23.5568 20.2579 23.3967 20.3579 23.2298 20.3312C23.0796 20.3079 22.9595 20.1845 22.9028 20.0443C22.8461 19.9042 22.8495 19.744 22.8661 19.5939C22.8829 19.4504 22.9228 19.297 23.0363 19.2035C23.1798 19.0901 23.3799 19.1168 23.5601 19.1301C23.7403 19.1435 23.9571 19.1201 24.0439 18.9599C24.0739 18.9032 24.0839 18.8331 24.0806 18.7698C24.0806 18.5629 23.9938 18.3627 24.0072 18.1558C24.0206 17.949 24.1874 17.7221 24.3909 17.7721" fill="#0FF294"/>
<path d="M13.3086 31.7247L15.4272 32.1751L14.183 31.4634L13.3086 31.7247Z" fill="#0FF294"/>
</g>
<defs>
<clipPath id="clip0_1886_6689">
<rect width="35" height="35" fill="white"/>
</clipPath>
</defs>
</svg>
