<svg width="35" height="36" viewBox="0 0 35 36" fill="none" xmlns="http://www.w3.org/2000/svg">
<g clip-path="url(#clip0_2061_1086)">
<path d="M17.5 35.8215C27.165 35.8215 35 27.9865 35 18.3215C35 8.65655 27.165 0.821533 17.5 0.821533C7.83502 0.821533 0 8.65655 0 18.3215C0 27.9865 7.83502 35.8215 17.5 35.8215Z" fill="#081426"/>
<path d="M3.98047 18.4966L17.6742 12.0435V25.081L3.98047 18.4966Z" fill="#0EF293"/>
<path d="M31.3695 18.5183L17.6758 12.0652V25.1027L31.3695 18.5183Z" fill="#0EF293"/>
<path d="M17.6746 12.0652L15.1152 18.3652L17.6746 25.1027V12.0652Z" fill="#081426"/>
<path d="M17.6758 12.1309L20.2133 18.409L17.6758 25.1684V12.1309Z" fill="#081426"/>
<path d="M8.64062 28.0121L26.7969 9.83398" stroke="#F20F7A" stroke-miterlimit="10"/>
</g>
<defs>
<clipPath id="clip0_2061_1086">
<rect width="35" height="35" fill="white" transform="translate(0 0.821533)"/>
</clipPath>
</defs>
</svg>
