<svg width="30" height="30" viewBox="0 0 30 30" fill="none" xmlns="http://www.w3.org/2000/svg">
<g clip-path="url(#clip0_1886_6434)">
<path d="M14.9999 29.2105C22.9141 29.2105 29.3298 22.8311 29.3298 14.9616C29.3298 7.09211 22.9141 0.712646 14.9999 0.712646C7.08566 0.712646 0.669922 7.09211 0.669922 14.9616C0.669922 22.8311 7.08566 29.2105 14.9999 29.2105Z" fill="#081426"/>
<path d="M15.0005 29.4247C6.98015 29.4247 0.455078 22.9366 0.455078 14.9615C0.455078 6.98651 6.98015 0.498291 15.0005 0.498291C23.0209 0.498291 29.546 6.98647 29.546 14.9615C29.546 22.9366 23.0209 29.4247 15.0005 29.4247ZM15.0005 0.926909C7.21782 0.926909 0.886133 7.2228 0.886133 14.9615C0.886133 22.7003 7.21782 28.9961 15.0005 28.9961C22.7832 28.9961 29.1149 22.7002 29.1149 14.9615C29.1149 7.22284 22.7832 0.926909 15.0005 0.926909Z" fill="black" stroke="#081426" stroke-width="0.5" stroke-miterlimit="10"/>
<path d="M16.9092 13.4013C19.5878 17.2803 22.2551 21.1421 24.9613 25.0623C24.763 25.0743 24.632 25.0897 24.5009 25.0897C22.7983 25.0931 21.0947 25.0888 19.3921 25.1034C19.1205 25.106 18.9688 25.0065 18.8214 24.7931C17.1747 22.3988 15.5195 20.0097 13.866 17.6206C13.7892 17.5092 13.7056 17.402 13.597 17.2529C13.4961 17.36 13.4047 17.4518 13.3202 17.5495C11.2296 19.9635 9.13644 22.3757 7.05271 24.7965C6.86822 25.0109 6.68718 25.1249 6.3932 25.1069C5.97507 25.0812 5.55436 25.1 5.03711 25.1C5.17073 24.932 5.24575 24.8291 5.32851 24.734C7.7338 21.954 10.1365 19.1705 12.553 16.4C12.7668 16.1548 12.7599 15.9988 12.5831 15.7433C10.1339 12.2201 7.69584 8.68914 5.25607 5.15906C5.19485 5.07077 5.14315 4.97647 5.06124 4.84275C5.2328 4.83503 5.36298 4.82475 5.49229 4.82475C7.20789 4.8239 8.92347 4.8316 10.6391 4.81789C10.8994 4.81618 11.0408 4.90876 11.1796 5.11021C12.7418 7.38273 14.3117 9.64926 15.8807 11.9175C15.9488 12.0169 16.0229 12.1121 16.1273 12.2527C16.6738 11.6235 17.1997 11.02 17.723 10.4156C19.2783 8.61887 20.8318 6.81955 22.3922 5.02707C22.4724 4.93449 22.6077 4.83849 22.7215 4.83333C23.2155 4.81191 23.7112 4.8239 24.3259 4.8239C21.8172 7.72392 19.374 10.5502 16.9092 13.4013ZM7.47 6.15943C7.56138 6.3043 7.62087 6.40717 7.68811 6.50404C9.48647 9.06374 11.2865 11.6234 13.0858 14.1823C15.2695 17.288 17.4532 20.3938 19.6412 23.4961C19.7214 23.6101 19.8438 23.7747 19.9507 23.7781C20.787 23.8013 21.6241 23.791 22.5215 23.791C22.3853 23.587 22.2939 23.4438 22.1965 23.3049C20.0981 20.3209 17.9989 17.3369 15.9005 14.3537C14.0435 11.7143 12.1866 9.07402 10.3253 6.43718C10.2468 6.32659 10.1184 6.17487 10.0097 6.1723C9.18125 6.14916 8.35365 6.15943 7.47 6.15943Z" fill="#0FF294"/>
<path d="M0.669922 10.5236C1.05763 9.45021 4.27825 8.46778 3.03858 10.5683C3.03103 10.9723 3.33823 11.0417 3.50509 11.2285C3.72005 11.6954 2.87214 13.0764 3.02052 13.1026C3.06116 13.6572 3.47258 14.2337 4.17554 14.0398C5.2935 13.4735 3.49612 9.88973 5.50792 10.4615C5.86276 10.6903 6.02352 11.1413 6.60012 11.1059C7.48923 10.8888 7.0321 9.88573 7.47219 9.43025C7.76638 9.18052 8.3566 9.0816 8.74645 8.90822L6.41301 5.37424L10.4876 5.35641L11.9595 7.60532C13.291 8.0956 12.548 7.30846 12.8414 6.58656C13.2648 6.11347 13.8126 6.35857 14.0991 6.74752C14.2041 7.86884 15.2873 8.07356 15.556 7.04454C15.8094 6.08469 14.4159 5.0156 14.3481 4.96473C13.9766 4.18607 13.7574 3.82094 14.1763 2.91466C15.09 1.68769 15.108 4.04742 15.9801 3.82147C16.6023 3.53484 15.912 2.89159 16.1238 2.39355C16.2137 2.05957 16.5013 2.18718 16.7138 2.2039C17.2732 1.80209 16.6565 0.707226 17.0692 0.180349C8.53063 -1.16316 2.02207 5.26923 0.669922 10.5236Z" fill="#0FF294"/>
<path d="M12.9881 29.7387C13.8731 28.836 13.587 28.9878 12.9285 28.4747C12.5671 27.9539 12.8972 27.7593 12.4448 27.1799C12.1757 26.8537 11.8649 26.8851 11.6761 26.7234C11.2902 26.5643 11.5532 24.3173 12.7034 23.8338C13.2252 23.4646 14.1903 23.7946 14.0144 24.622C13.9463 24.9635 13.2 25.7953 13.3884 26.305C13.8025 27.3057 14.5578 26.7409 14.6993 25.9742C15.6784 24.5358 16.8112 27.7118 17.8451 26.3391C18.1538 25.5817 17.3242 24.5251 17.9308 23.5001L18.7215 23.0514L19.727 24.3255L23.3277 24.3577C22.9397 23.242 22.5517 22.1263 22.1638 21.0106C22.6538 21.8117 23.4121 21.7012 23.4895 20.9793C23.6635 20.0626 22.7638 19.4251 23.7008 18.7132C24.0107 18.4394 24.6249 18.8212 24.6161 19.1395C24.6844 19.5106 24.4791 19.7993 24.9611 20.0195C25.6225 19.9771 25.8409 19.1483 25.6469 18.6004C25.468 18.2668 25.0297 17.7978 25.1444 17.3006C25.6635 16.0126 25.934 17.4237 26.6038 17.7617C26.7953 17.7576 26.9124 17.8013 26.9769 17.8792C27.2245 18.1783 26.4769 18.7924 26.6038 19.6325C26.6707 20.075 26.9441 20.3562 27.0292 20.4413C27.3918 20.8041 28.0297 21.0627 28.4645 20.8486C28.8962 20.6361 29.1296 19.9744 29.1198 19.9712C29.1195 19.9711 29.1176 19.9759 29.1139 19.9865C27.0924 25.938 20.0614 31.2541 12.9881 29.7387Z" fill="#0FF294"/>
</g>
<defs>
<clipPath id="clip0_1886_6434">
<rect width="30" height="30" fill="white"/>
</clipPath>
</defs>
</svg>
